<svg width="16" height="16" viewBox="0 0 16 16" fill="none" xmlns="http://www.w3.org/2000/svg">
<path d="M7.8675 11.0675C7.71173 11.0678 7.56077 11.0136 7.44083 10.9142L3.44083 7.58084C3.30469 7.46768 3.21907 7.30507 3.20282 7.12879C3.18656 6.9525 3.24101 6.77698 3.35417 6.64084C3.46732 6.50469 3.62993 6.41908 3.80622 6.40282C3.9825 6.38657 4.15802 6.44101 4.29417 6.55417L7.8675 9.54084L11.4408 6.66084C11.509 6.60546 11.5875 6.5641 11.6717 6.53915C11.7559 6.5142 11.8443 6.50613 11.9316 6.51543C12.019 6.52472 12.1036 6.55118 12.1807 6.5933C12.2578 6.63542 12.3258 6.69235 12.3808 6.76084C12.4419 6.82938 12.4881 6.9098 12.5167 6.99705C12.5452 7.0843 12.5554 7.1765 12.5466 7.26788C12.5379 7.35925 12.5103 7.44783 12.4657 7.52807C12.4211 7.60831 12.3605 7.67847 12.2875 7.73417L8.2875 10.9542C8.16411 11.0378 8.01623 11.0777 7.8675 11.0675Z" fill="#8B949E"/>
</svg>
