<svg width="28" height="29" viewBox="0 0 28 29" fill="none" xmlns="http://www.w3.org/2000/svg">
<path d="M25.6667 14.5C25.6667 12.9679 25.3649 11.4508 24.7786 10.0353C24.1923 8.61987 23.3329 7.33375 22.2496 6.2504C21.1662 5.16705 19.8801 4.30769 18.4646 3.72139C17.0492 3.13508 15.5321 2.83331 14 2.83331C10.9058 2.83331 7.93836 4.06248 5.75043 6.2504C3.56251 8.43832 2.33334 11.4058 2.33334 14.5C2.33334 17.5942 3.56251 20.5616 5.75043 22.7496C7.93836 24.9375 10.9058 26.1666 14 26.1666C17.0942 26.1666 20.0617 24.9375 22.2496 22.7496C24.4375 20.5616 25.6667 17.5942 25.6667 14.5ZM23.2517 13.3333H19.8333C19.6409 10.5895 18.7008 7.95072 17.115 5.70331C18.7442 6.28194 20.1807 7.30173 21.2642 8.64896C22.3478 9.9962 23.0359 11.6179 23.2517 13.3333ZM10.5933 15.6666H17.5C17.2014 18.549 15.9729 21.2559 14 23.3783C12.0284 21.2647 10.8281 18.5475 10.5933 15.6666ZM10.5933 13.3333C10.865 10.4654 12.0605 7.76332 14 5.63331C15.9888 7.74046 17.2202 10.4494 17.5 13.3333H10.5933ZM11.0133 5.66831C9.41915 7.92817 8.46394 10.5762 8.24834 13.3333H4.74834C4.96873 11.5967 5.67305 9.95712 6.78087 8.60175C7.88869 7.24637 9.35534 6.22987 11.0133 5.66831ZM4.74834 15.6666H8.24834C8.44048 18.4215 9.3892 21.0698 10.99 23.32C9.33798 22.7557 7.87733 21.7394 6.77399 20.3865C5.67065 19.0336 4.96886 17.3984 4.74834 15.6666ZM17.0567 23.3083C18.6532 21.0574 19.6124 18.4174 19.8333 15.6666H23.275C23.0544 17.3936 22.3551 19.0244 21.2563 20.3748C20.1574 21.7252 18.7027 22.7413 17.0567 23.3083Z" fill="white"/>
<path d="M25.6667 14.5C25.6667 12.968 25.3649 11.4509 24.7786 10.0354C24.1923 8.61994 23.3329 7.33381 22.2496 6.25046C21.1662 5.16711 19.8801 4.30775 18.4646 3.72145C17.0492 3.13514 15.5321 2.83337 14 2.83337C10.9058 2.83337 7.93836 4.06254 5.75043 6.25046C3.56251 8.43839 2.33334 11.4058 2.33334 14.5C2.33334 17.5942 3.56251 20.5617 5.75043 22.7496C7.93836 24.9375 10.9058 26.1667 14 26.1667C17.0942 26.1667 20.0617 24.9375 22.2496 22.7496C24.4375 20.5617 25.6667 17.5942 25.6667 14.5ZM23.2517 13.3334H19.8333C19.6409 10.5895 18.7008 7.95078 17.115 5.70337C18.7442 6.282 20.1807 7.30179 21.2642 8.64902C22.3478 9.99626 23.0359 11.618 23.2517 13.3334ZM10.5933 15.6667H17.5C17.2014 18.5491 15.9729 21.2559 14 23.3784C12.0284 21.2648 10.8281 18.5475 10.5933 15.6667ZM10.5933 13.3334C10.865 10.4655 12.0605 7.76338 14 5.63337C15.9888 7.74052 17.2202 10.4494 17.5 13.3334H10.5933ZM11.0133 5.66837C9.41915 7.92823 8.46394 10.5762 8.24834 13.3334H4.74834C4.96873 11.5968 5.67305 9.95718 6.78087 8.60181C7.88869 7.24643 9.35534 6.22993 11.0133 5.66837ZM4.74834 15.6667H8.24834C8.44048 18.4215 9.3892 21.0699 10.99 23.32C9.33798 22.7557 7.87733 21.7394 6.77399 20.3866C5.67065 19.0337 4.96886 17.3985 4.74834 15.6667ZM17.0567 23.3084C18.6532 21.0575 19.6124 18.4174 19.8333 15.6667H23.275C23.0544 17.3937 22.3551 19.0245 21.2563 20.3749C20.1574 21.7252 18.7027 22.7414 17.0567 23.3084Z" fill="white"/>
</svg>
